PathFileType	4	(X/Y/Z)	C:/Users/opensim2020/Desktop/walking_exp_matlab/subject02_walking15_straight_04.trc	
DataRate	CameraRate	NumFrames	NumMarkers	Units	OrigDataRate	OrigDataStartFrame	OrigNumFrames	
100.00	100.00	6	42	mm	100.00	1717	152	
Frame#	Time	LFHD			RFHD			LBHD			RBHD			C7			T10			CLAV			STRN			RBAK			LSHO			LUPA			LELB			LFRM			LWRA			LWRB			LFIN			RSHO			RUPA			RELB			RFRM			RWRA			RWRB			RFIN			LASI			RASI			LPSI			RPSI			LTHI			LKNE			LTIB			LANK			LHEE			LTOE			RTHI			RKNE			RTIB			RANK			RHEE			RTOE			*39			*40			*41			
		X1	Y1	Z1	X2	Y2	Z2	X3	Y3	Z3	X4	Y4	Z4	X5	Y5	Z5	X6	Y6	Z6	X7	Y7	Z7	X8	Y8	Z8	X9	Y9	Z9	X10	Y10	Z10	X11	Y11	Z11	X12	Y12	Z12	X13	Y13	Z13	X14	Y14	Z14	X15	Y15	Z15	X16	Y16	Z16	X17	Y17	Z17	X18	Y18	Z18	X19	Y19	Z19	X20	Y20	Z20	X21	Y21	Z21	X22	Y22	Z22	X23	Y23	Z23	X24	Y24	Z24	X25	Y25	Z25	X26	Y26	Z26	X27	Y27	Z27	X28	Y28	Z28	X29	Y29	Z29	X30	Y30	Z30	X31	Y31	Z31	X32	Y32	Z32	X33	Y33	Z33	X34	Y34	Z34	X35	Y35	Z35	X36	Y36	Z36	X37	Y37	Z37	X38	Y38	Z38	X39	Y39	Z39	X40	Y40	Z40	X41	Y41	Z41	X42	Y42	Z42	

39	0.380	-987.02521	594.30231	1755.06274	-1130.94128	599.48608	1743.47290	-976.81104	717.59070	1669.32654	-1119.93591	734.89777	1655.42236	-1043.09839	766.68549	1535.17297	-1053.75903	821.70099	1262.81177	-1049.73352	627.48669	1468.40503	-1064.77637	577.06409	1295.66272	-1101.49316	834.17346	1363.18384	-873.20819	676.24500	1508.10120	-792.16364	664.57092	1306.83496	-780.28931	652.55719	1165.29443	-779.66693	616.50537	1036.49426	-831.48029	546.35596	925.88190	-789.48871	583.06207	918.42261	-792.52911	551.23737	860.74597	-1234.75427	718.57117	1505.85913	-1317.95166	790.05945	1331.86523	-1347.07690	799.07220	1185.47498	-1367.29150	780.64056	1064.63647	-1345.42883	743.61780	933.48065	-1380.15967	788.62756	934.17242	-1375.39697	760.98071	865.25092	-938.24341	616.64728	983.41931	-1185.61121	610.50006	991.82068	-1013.58813	816.25647	1050.14380	-1130.43103	821.36945	1055.78918	-914.27661	715.43237	669.44025	-962.12531	771.34039	475.50198	-977.77643	849.05402	296.12216	-1031.97583	868.77557	77.12486	-1087.07739	903.77545	51.74252	-1010.82166	715.28308	38.37259	-1290.76917	630.20538	701.95483	-1275.15198	580.12390	500.38516	-1275.00769	656.79858	328.39993	-1240.07581	708.77075	143.15874	-1176.72424	738.92456	92.35226	-1282.32373	580.12891	59.00386	-1069.47656	705.06720	1815.48596	-3356.98755	2845.97192	1034.39075			 
40	0.390	-988.81586	580.19153	1753.22388	-1132.69324	585.46381	1741.26807	-978.41022	703.37402	1667.47217	-1121.47131	720.82715	1653.17114	-1044.52808	752.58307	1533.34717	-1055.55444	808.44836	1261.13940	-1050.73425	613.47681	1466.03540	-1064.94666	563.63312	1292.95361	-1102.68274	820.39899	1361.37061	-874.39642	662.53998	1506.31726	-793.43353	648.86145	1305.42639	-781.88074	633.85706	1163.69531	-783.82166	592.96313	1035.85229	-838.75916	519.35126	929.53845	-796.57556	555.26172	919.33026	-800.91473	521.46405	863.27728	-1236.16663	703.55707	1503.14136	-1317.98254	777.82312	1329.74976	-1346.40320	789.11212	1183.47656	-1365.97839	774.35437	1062.11072	-1343.39465	742.01074	929.84186	-1379.03845	786.55042	932.15393	-1373.30823	761.54401	862.05524	-936.91455	606.22955	980.76941	-1185.06250	596.14801	989.52783	-1016.86041	804.57117	1048.20850	-1133.58337	807.90039	1053.73230	-915.41046	708.24573	668.46674	-962.94867	766.78448	475.01248	-978.68140	846.74536	296.67810	-1032.41711	868.54608	77.64541	-1087.59534	903.60992	52.40512	-1010.69891	715.20770	38.31188	-1291.74829	611.86902	701.29041	-1274.73621	560.63983	498.99445	-1277.05786	627.09528	322.29800	-1244.33630	667.71130	133.98579	-1182.37622	695.73730	81.40597	-1284.48511	533.09467	58.40757	-1071.85327	690.93713	1813.53040	-3360.52515	2845.26440	1034.44116			 
41	0.400	-990.70569	566.07434	1751.10669	-1134.59314	571.35406	1738.72827	-980.13940	689.16083	1665.52783	-1123.05371	706.71722	1650.62061	-1045.98669	738.43878	1531.21826	-1057.46448	795.09949	1259.16235	-1051.84119	599.37781	1463.36926	-1065.30627	550.15485	1290.00452	-1104.00281	806.61230	1359.24841	-875.62421	648.62610	1504.18823	-794.60303	632.74542	1303.82336	-783.24182	615.37469	1161.96497	-787.76141	570.24347	1035.79285	-845.44299	493.00977	933.07037	-803.53461	527.87781	920.97931	-809.27655	492.22461	866.15326	-1237.57043	688.71692	1500.27148	-1317.95447	765.52454	1327.50110	-1345.74512	779.01831	1181.40576	-1365.03137	767.84192	1059.76819	-1341.75916	740.18701	926.45135	-1378.04822	784.06879	930.26776	-1371.59851	761.71124	859.25671	-935.67834	596.01483	978.01605	-1184.84192	581.72974	986.84973	-1020.29785	792.85028	1045.86169	-1136.76978	794.32977	1051.20361	-916.32257	700.69116	667.43896	-963.78607	761.79944	474.45334	-979.73352	844.22504	297.18008	-1032.80322	868.21594	78.18055	-1088.06897	903.31659	53.11091	-1010.52789	715.08795	38.25277	-1292.58496	594.10669	700.01392	-1274.13708	541.86908	497.08408	-1279.21216	597.58118	316.46136	-1248.80164	626.20831	125.57639	-1187.90918	652.18207	71.08776	-1286.66797	485.96445	58.88761	-1073.31079	676.87433	1811.18298	-3357.32935	2846.03394	1034.47339			 
42	0.410	-992.91187	551.73090	1748.59473	-1136.40906	557.24805	1735.95752	-981.72473	675.13391	1663.04028	-1124.67957	692.59100	1647.86743	-1047.45032	724.24530	1528.75305	-1059.44275	781.63916	1256.92078	-1053.05017	585.22345	1460.27332	-1065.82397	536.57056	1286.82874	-1105.33923	792.67871	1356.82715	-876.95801	634.67859	1501.83948	-795.90155	616.94714	1302.05750	-784.45526	597.11475	1160.03833	-791.95172	546.93781	1035.11926	-852.42267	467.25067	937.12311	-810.18542	501.21072	922.47803	-817.61926	463.40649	869.47406	-1239.31616	673.82458	1497.36487	-1318.04785	752.99481	1325.11475	-1345.15332	768.70013	1179.30542	-1364.33875	761.06525	1057.50134	-1340.41321	737.96521	923.29553	-1377.28174	781.27417	928.56049	-1370.49817	761.41583	856.88489	-934.78058	584.83679	975.38293	-1184.90613	567.27039	983.72308	-1023.84814	780.95935	1043.11658	-1139.96655	780.71210	1048.23010	-917.23486	693.72925	666.24957	-964.62592	756.40039	473.80103	-980.54224	841.35046	297.80716	-1033.24158	867.84558	78.73669	-1088.27942	902.71423	53.59531	-1010.35449	715.02051	38.16096	-1293.45837	576.79614	698.16681	-1273.35034	523.78619	494.64279	-1281.47229	568.17377	311.01468	-1253.45935	584.42682	118.23156	-1193.40112	607.75653	62.04013	-1288.66296	439.16476	60.29778	-1076.02380	662.75885	1808.43616	-3357.22705	2845.96118	1034.43335			 
43	0.420	-994.82263	537.72784	1745.95569	-1138.32227	543.11536	1732.97070	-983.55035	660.91034	1660.18115	-1126.38232	678.47400	1644.81885	-1049.02051	710.01978	1526.02893	-1061.49854	768.07831	1254.40332	-1054.03943	571.00922	1457.23950	-1066.42163	522.87927	1283.16992	-1106.73462	778.62927	1354.09021	-878.34155	620.48785	1499.22156	-797.11835	601.02429	1300.03674	-785.54089	579.14197	1158.08508	-795.87189	524.56122	1035.10083	-859.20697	441.49088	941.61151	-816.95337	474.63959	924.63586	-825.67651	434.86035	873.35028	-1240.73071	658.91504	1494.24500	-1318.25452	740.43701	1322.62964	-1344.62671	758.28430	1177.12939	-1363.96106	754.24371	1055.28918	-1339.54199	735.34381	920.38818	-1376.64880	777.99146	926.98199	-1369.87402	760.54736	854.81769	-934.02899	573.77734	972.64783	-1185.49609	552.65930	980.31866	-1027.54285	768.88654	1040.03284	-1143.18286	766.96600	1044.83484	-918.09100	686.31775	665.21722	-965.59039	750.83032	473.09174	-981.35626	838.11676	298.38303	-1033.59265	867.40320	79.38584	-1088.91589	902.59662	54.63655	-1010.21185	714.88202	38.07010	-1294.29395	559.95551	695.53876	-1272.58105	506.30396	491.89468	-1283.45142	539.12823	306.08957	-1258.28601	542.68866	112.32572	-1198.97253	563.61041	54.62394	-1290.99976	393.11288	63.29426	-1077.63196	648.69501	1805.88074	-3360.48730	2845.31812	1034.16284			 
44	0.430	-996.44452	523.87158	1743.32581	-1140.24866	528.96423	1729.76575	-985.18427	647.01007	1657.64612	-1128.16870	664.27673	1641.63318	-1050.65857	695.82599	1523.08228	-1063.70764	754.40729	1251.65430	-1055.36755	556.73285	1453.68677	-1067.17004	509.09430	1279.79004	-1108.19861	764.40765	1351.12585	-879.85284	606.32971	1496.43066	-798.23602	585.47168	1297.83594	-786.61121	561.41687	1155.91809	-799.59106	502.47083	1034.89417	-865.60126	416.80780	946.15161	-823.28833	448.27325	927.08044	-833.68652	406.61624	877.70105	-1242.20020	644.14020	1490.95032	-1318.64478	727.77368	1320.06787	-1344.22449	747.75623	1174.91418	-1363.80005	746.98297	1053.22473	-1339.11902	732.04523	917.63763	-1376.41882	774.40558	925.62964	-1369.56311	759.38550	852.77875	-933.80072	562.25598	969.87280	-1186.25928	538.05377	976.59552	-1031.34680	756.46039	1036.65955	-1146.30481	753.08643	1041.15051	-918.76788	678.65540	664.02570	-966.60590	745.16602	472.44885	-982.27026	834.98120	299.13156	-1033.99109	866.99225	80.24492	-1089.43433	902.25659	55.69973	-1010.08313	714.80933	37.95959	-1294.98450	543.63745	692.29297	-1271.76648	489.24496	488.81696	-1285.47339	510.32242	301.87418	-1262.89124	501.22684	107.79221	-1204.35034	519.41223	48.81109	-1293.14075	347.93536	67.92074	-1080.32043	634.64478	1802.64685	-3360.20435	2845.22461	1034.40100			 
